<svg width="109" height="109" viewBox="0 0 109 109" fill="none" xmlns="http://www.w3.org/2000/svg">
<path d="M32.4445 94.1402C32.2478 94.1401 32.055 94.0855 31.8875 93.9824C31.72 93.8794 31.5843 93.732 31.4955 93.5565C31.4066 93.381 31.3682 93.1844 31.3843 92.9883C31.4005 92.7923 31.4706 92.6046 31.587 92.446C35.9789 86.4583 43.3309 82.883 51.2526 82.883H56.9648C64.7251 82.883 71.9924 86.345 76.4047 92.1442C76.4931 92.2551 76.5585 92.3825 76.597 92.519C76.6354 92.6555 76.6462 92.7983 76.6288 92.939C76.6113 93.0797 76.5658 93.2156 76.4951 93.3385C76.4244 93.4614 76.3299 93.569 76.217 93.6548C76.1042 93.7407 75.9753 93.8032 75.838 93.8385C75.7006 93.8739 75.5576 93.8815 75.4173 93.8608C75.277 93.8402 75.1423 93.7917 75.021 93.7182C74.8997 93.6447 74.7943 93.5478 74.711 93.433C70.6984 88.1601 64.0664 85.0119 56.9648 85.0119H51.2534C44.007 85.0119 37.2971 88.2619 33.3042 93.7051C33.2052 93.8401 33.0758 93.9499 32.9264 94.0255C32.777 94.1011 32.6119 94.1404 32.4445 94.1402V94.1402Z" fill="#3C591E"/>
<path d="M92.3945 30.7209H80.522C80.2397 30.7209 79.969 30.8331 79.7694 31.0327C79.5697 31.2323 79.4576 31.5031 79.4576 31.7854C79.4576 32.0677 79.5697 32.3385 79.7694 32.5381C79.969 32.7377 80.2397 32.8499 80.522 32.8499H91.3301V92.4311H83.2713C82.5494 91.1782 81.7362 89.9801 80.8384 88.8465V79.814C80.8384 79.5316 80.7263 79.2609 80.5266 79.0613C80.327 78.8616 80.0563 78.7495 79.7739 78.7495C79.4916 78.7495 79.2209 78.8616 79.0213 79.0613C78.8216 79.2609 78.7095 79.5316 78.7095 79.814V86.4361C75.3513 83.0364 71.2201 80.5001 66.6688 79.0437C67.5447 76.1433 68.9527 74.2013 70.5239 73.784C70.7929 73.7082 71.0213 73.5296 71.1598 73.2868C71.2983 73.044 71.3357 72.7565 71.264 72.4863C71.1923 72.2161 71.0171 71.985 70.7764 71.8429C70.5357 71.7008 70.2488 71.659 69.9776 71.7267C68.6389 72.0818 67.4369 73.041 66.4436 74.487V70.7401C66.4436 70.4578 66.3314 70.1871 66.1318 69.9874C65.9322 69.7878 65.6614 69.6757 65.3791 69.6757C65.0968 69.6757 64.8261 69.7878 64.6265 69.9874C64.4268 70.1871 64.3147 70.4578 64.3147 70.7401V74.487C63.3222 73.0393 62.1202 72.0818 60.7807 71.7267C60.6449 71.6884 60.5027 71.6775 60.3627 71.6947C60.2226 71.7118 60.0873 71.7567 59.9647 71.8266C59.8421 71.8965 59.7346 71.9901 59.6485 72.102C59.5624 72.2138 59.4995 72.3417 59.4632 72.4781C59.427 72.6145 59.4183 72.7567 59.4376 72.8965C59.4568 73.0364 59.5037 73.1709 59.5755 73.2925C59.6472 73.414 59.7424 73.52 59.8556 73.6044C59.9687 73.6888 60.0975 73.7499 60.2344 73.784C61.6655 74.1643 62.962 75.8095 63.8438 78.2922C61.8216 77.8586 59.7593 77.6396 57.6912 77.6386H55.1365V64.3543C55.1365 64.0719 55.0244 63.8012 54.8248 63.6016C54.6252 63.402 54.3544 63.2898 54.0721 63.2898C53.7898 63.2898 53.519 63.402 53.3194 63.6016C53.1198 63.8012 53.0076 64.0719 53.0076 64.3543V77.6386H50.4836C48.4032 77.64 46.3289 77.8629 44.2957 78.3037C45.1779 75.815 46.4762 74.1651 47.9093 73.784C48.0463 73.7499 48.1751 73.6888 48.2882 73.6044C48.4013 73.52 48.4965 73.414 48.5683 73.2925C48.6401 73.1709 48.6869 73.0364 48.7062 72.8965C48.7255 72.7567 48.7167 72.6145 48.6805 72.4781C48.6443 72.3417 48.5813 72.2138 48.4952 72.102C48.4091 71.9901 48.3017 71.8965 48.1791 71.8266C48.0565 71.7567 47.9212 71.7118 47.7811 71.6947C47.641 71.6775 47.4989 71.6884 47.3631 71.7267C46.0248 72.0818 44.8228 73.041 43.8291 74.4874V70.7406C43.8291 70.4582 43.7169 70.1875 43.5173 69.9879C43.3177 69.7882 43.0469 69.6761 42.7646 69.6761C42.4823 69.6761 42.2116 69.7882 42.0119 69.9879C41.8123 70.1875 41.7002 70.4582 41.7002 70.7406V74.4874C40.7081 73.0398 39.5061 72.0818 38.1662 71.7267C38.0303 71.6884 37.8882 71.6775 37.7481 71.6947C37.608 71.7118 37.4728 71.7567 37.3502 71.8266C37.2276 71.8965 37.1201 71.9901 37.034 72.102C36.9479 72.2138 36.8849 72.3417 36.8487 72.4781C36.8125 72.6145 36.8038 72.7567 36.823 72.8965C36.8423 73.0364 36.8892 73.1709 36.9609 73.2925C37.0327 73.414 37.1279 73.52 37.2411 73.6044C37.3542 73.6888 37.483 73.7499 37.6199 73.784C39.1953 74.2022 40.6038 76.1501 41.4796 79.0586C36.9257 80.526 32.7935 83.0714 29.4343 86.4783V79.814C29.4343 79.5316 29.3221 79.2609 29.1225 79.0613C28.9229 78.8616 28.6521 78.7495 28.3698 78.7495C28.0875 78.7495 27.8167 78.8616 27.6171 79.0613C27.4175 79.2609 27.3054 79.5316 27.3054 79.814V88.8886C26.4273 89.9972 25.6305 91.1678 24.921 92.3911C24.9137 92.4039 24.9099 92.4179 24.9031 92.4311H15.9617V32.8499H26.7748C27.0571 32.8499 27.3279 32.7377 27.5275 32.5381C27.7271 32.3385 27.8393 32.0677 27.8393 31.7854C27.8393 31.5031 27.7271 31.2323 27.5275 31.0327C27.3279 30.8331 27.0571 30.7209 26.7748 30.7209H14.9023C14.62 30.7209 14.3493 30.8331 14.1497 31.0327C13.95 31.2323 13.8379 31.5031 13.8379 31.7854V93.4956C13.8379 93.7779 13.95 94.0486 14.1497 94.2483C14.3493 94.4479 14.62 94.56 14.9023 94.56H92.3945C92.6768 94.56 92.9476 94.4479 93.1472 94.2483C93.3468 94.0486 93.459 93.7779 93.459 93.4956V31.7854C93.459 31.5031 93.3468 31.2323 93.1472 31.0327C92.9476 30.8331 92.6768 30.7209 92.3945 30.7209V30.7209ZM50.4857 79.7675H57.6934C62.2951 79.7724 66.8217 80.9348 70.8565 83.1477C74.8912 85.3607 78.3044 88.5531 80.7818 92.4311H27.3977C29.8788 88.5566 33.2926 85.3669 37.3265 83.1544C41.3603 80.9419 45.885 79.7773 50.4857 79.7675V79.7675Z" fill="#112616"/>
<path d="M70.7316 43.9006C70.6085 43.9007 70.4863 43.8792 70.3706 43.8371L49.5303 36.3289H36.6193C36.337 36.3289 36.0663 36.2168 35.8666 36.0171C35.667 35.8175 35.5549 35.5468 35.5549 35.2645C35.5549 34.9822 35.667 34.7114 35.8666 34.5118C36.0663 34.3122 36.337 34.2 36.6193 34.2H49.7164C49.8394 34.1999 49.9614 34.2214 50.077 34.2635L71.0927 41.8347C71.3284 41.9196 71.5267 42.085 71.6525 42.3017C71.7783 42.5184 71.8236 42.7726 71.7805 43.0194C71.7373 43.2662 71.6085 43.4899 71.4166 43.6511C71.2248 43.8123 70.9822 43.9006 70.7316 43.9006V43.9006Z" fill="#DCE9D3"/>
<path d="M49.7164 41.9543H37.9086C37.2846 41.9537 36.6864 41.7055 36.2452 41.2643C35.8039 40.8232 35.5557 40.225 35.5549 39.601V23.9715C35.5557 23.3475 35.8039 22.7493 36.2452 22.3081C36.6864 21.867 37.2846 21.6188 37.9086 21.6182H49.7164C49.9987 21.6182 50.2694 21.7303 50.469 21.9299C50.6687 22.1296 50.7808 22.4003 50.7808 22.6826C50.7808 22.9649 50.6687 23.2357 50.469 23.4353C50.2694 23.6349 49.9987 23.7471 49.7164 23.7471H37.9086C37.849 23.7471 37.7919 23.7707 37.7498 23.8128C37.7076 23.8548 37.6839 23.9119 37.6838 23.9715V39.601C37.6839 39.6606 37.7076 39.7177 37.7498 39.7597C37.7919 39.8018 37.849 39.8254 37.9086 39.8254H49.7164C49.9987 39.8254 50.2694 39.9376 50.469 40.1372C50.6687 40.3368 50.7808 40.6076 50.7808 40.8899C50.7808 41.1722 50.6687 41.4429 50.469 41.6426C50.2694 41.8422 49.9987 41.9543 49.7164 41.9543V41.9543Z" fill="#3C591E"/>
<path d="M69.4424 49.1301C69.1652 49.1301 68.8901 49.0811 68.63 48.9853L49.3481 41.8888C49.1437 41.8135 48.9674 41.6774 48.8428 41.4988C48.7183 41.3202 48.6515 41.1077 48.6515 40.8899V22.6814C48.6515 22.4636 48.7183 22.2511 48.8428 22.0725C48.9674 21.8939 49.1437 21.7577 49.3481 21.6825L68.6296 14.586C68.9853 14.455 69.3674 14.4118 69.7433 14.4603C70.1193 14.5087 70.478 14.6472 70.7889 14.8641C71.0998 15.081 71.3537 15.3697 71.529 15.7059C71.7043 16.042 71.7958 16.4154 71.7957 16.7945V46.7768C71.7958 47.0859 71.735 47.392 71.6167 47.6776C71.4985 47.9631 71.3251 48.2226 71.1065 48.4412C70.8879 48.6597 70.6284 48.8331 70.3428 48.9513C70.0572 49.0695 69.7511 49.1302 69.442 49.1301H69.4424ZM50.7808 40.1461L69.3649 46.9862C69.3988 46.9992 69.4353 47.0036 69.4713 46.999C69.5072 46.9944 69.5415 46.9809 69.571 46.9598C69.6012 46.9396 69.6258 46.9122 69.6426 46.88C69.6595 46.8477 69.6679 46.8118 69.6672 46.7755V16.7945C69.6674 16.7582 69.6588 16.7224 69.6422 16.6901C69.6255 16.6578 69.6013 16.63 69.5717 16.6091C69.542 16.5882 69.5077 16.5748 69.4716 16.57C69.4356 16.5652 69.399 16.5692 69.3649 16.5816L50.7808 23.4239V40.1461Z" fill="#3C591E"/>
<path d="M70.7316 38.4906C70.4493 38.4906 70.1786 38.3785 69.9789 38.1788C69.7793 37.9792 69.6672 37.7085 69.6672 37.4262V26.1455C69.6672 25.8632 69.7793 25.5925 69.9789 25.3928C70.1786 25.1932 70.4493 25.0811 70.7316 25.0811C72.4807 25.083 74.1576 25.7786 75.3943 27.0154C76.6311 28.2522 77.3268 29.9291 77.3287 31.6781V31.891C77.3274 33.6405 76.6321 35.318 75.3952 36.5554C74.1584 37.7927 72.4811 38.4887 70.7316 38.4906V38.4906ZM71.7961 27.339V36.234C72.7671 35.9944 73.6299 35.4365 74.2468 34.6494C74.8637 33.8622 75.1992 32.8911 75.1998 31.891V31.6781C75.1985 30.6785 74.8627 29.7081 74.2459 28.9215C73.629 28.135 72.7666 27.5776 71.7961 27.3381V27.339Z" fill="#3C591E"/>
<path d="M48.6353 52.7062H43.6217C43.3802 52.7062 43.1459 52.624 42.9573 52.4732C42.7686 52.3224 42.6369 52.1119 42.5837 51.8764L40.1567 41.1245C40.099 40.8508 40.1513 40.5654 40.3024 40.3299C40.4535 40.0945 40.6912 39.928 40.964 39.8665C41.2369 39.8049 41.5231 39.8533 41.7606 40.0011C41.9981 40.1488 42.1679 40.3842 42.2332 40.6562L44.4746 50.5769H47.4065L46.0197 41.0453C45.9802 40.7665 46.0529 40.4833 46.2217 40.2579C46.3906 40.0325 46.6419 39.8832 46.9206 39.8427C47.1993 39.8022 47.4827 39.8738 47.7087 40.0419C47.9347 40.2099 48.085 40.4606 48.1265 40.7392L49.6887 51.491C49.7106 51.6421 49.6998 51.7962 49.6569 51.9428C49.614 52.0893 49.5401 52.2249 49.4402 52.3404C49.3403 52.4559 49.2167 52.5485 49.0778 52.612C48.9389 52.6755 48.788 52.7083 48.6353 52.7083V52.7062Z" fill="#3C591E"/>
<path d="M36.6193 36.7926H32.5348C31.8544 36.792 31.202 36.5214 30.7208 36.0403C30.2397 35.5592 29.969 34.9069 29.9682 34.2265V29.3453C29.969 28.6649 30.2397 28.0125 30.7208 27.5315C31.202 27.0504 31.8544 26.7798 32.5348 26.7791H36.6193C36.9016 26.7791 37.1724 26.8913 37.372 27.0909C37.5716 27.2905 37.6838 27.5613 37.6838 27.8436V35.7282C37.6838 36.0105 37.5716 36.2812 37.372 36.4809C37.1724 36.6805 36.9016 36.7926 36.6193 36.7926V36.7926ZM32.5348 28.908C32.4188 28.908 32.3075 28.9541 32.2255 29.0361C32.1434 29.1181 32.0972 29.2293 32.0971 29.3453V34.2265C32.0973 34.3424 32.1435 34.4536 32.2256 34.5356C32.3076 34.6175 32.4188 34.6636 32.5348 34.6637H35.5549V28.908H32.5348Z" fill="#3C591E"/>
<path d="M56.8955 66.2584C55.8846 66.2565 54.8991 65.9418 54.0742 65.3574C53.5216 65.7484 52.8938 66.0203 52.2305 66.156C51.5673 66.2917 50.8831 66.2882 50.2213 66.1458C49.5595 66.0033 48.9345 65.7249 48.3859 65.3284C47.8373 64.9318 47.3769 64.4256 47.0341 63.8419C46.6913 63.2581 46.4734 62.6096 46.3942 61.9372C46.3151 61.2649 46.3764 60.5835 46.5743 59.9361C46.7722 59.2887 47.1024 58.6895 47.544 58.1763C47.9855 57.6632 48.5288 57.2473 49.1394 56.9551C49.1394 56.9048 49.1369 56.8554 49.1369 56.806C49.1489 55.5162 49.6697 54.2832 50.5861 53.3754C51.5025 52.4675 52.7402 51.9582 54.0302 51.9582C55.3201 51.9582 56.5579 52.4675 57.4742 53.3754C58.3906 54.2832 58.9114 55.5162 58.9235 56.806C58.9235 56.8414 58.9235 56.8763 58.9235 56.9116C59.9409 57.3744 60.7692 58.1715 61.2706 59.1704C61.772 60.1694 61.9163 61.3099 61.6794 62.4022C61.4426 63.4945 60.8388 64.4728 59.9687 65.1743C59.0985 65.8758 58.0144 66.2582 56.8967 66.258L56.8955 66.2584ZM54.0742 62.8828C54.2219 62.8828 54.368 62.9135 54.5032 62.9731C54.6383 63.0326 54.7596 63.1196 54.8594 63.2285C55.1166 63.5131 55.4308 63.7404 55.7816 63.8956C56.1323 64.0509 56.5119 64.1305 56.8955 64.1295C57.5737 64.1301 58.2285 63.8811 58.7351 63.4301C59.2416 62.979 59.5645 62.3573 59.6422 61.6835C59.7199 61.0097 59.547 60.3309 59.1565 59.7763C58.7659 59.2218 58.1849 58.8303 57.5243 58.6765C57.251 58.613 57.0138 58.444 56.8644 58.2065C56.7149 57.969 56.6654 57.682 56.7264 57.4081C56.8185 57.0027 56.8179 56.5817 56.7247 56.1765C56.6315 55.7713 56.4482 55.3924 56.1883 55.0678C55.9284 54.7433 55.5987 54.4816 55.2236 54.3022C54.8486 54.1227 54.4379 54.0302 54.0221 54.0315C53.6064 54.0327 53.1963 54.1277 52.8223 54.3094C52.4483 54.4911 52.1202 54.7548 51.8622 55.0808C51.6043 55.4069 51.4232 55.787 51.3325 56.1927C51.2417 56.5984 51.2437 57.0194 51.3382 57.4243C51.3999 57.6947 51.3536 57.9786 51.2092 58.2154C51.0648 58.4522 50.8336 58.6233 50.5649 58.6923C50.1481 58.7989 49.7619 59.0015 49.4372 59.2838C49.1125 59.5662 48.8583 59.9205 48.6948 60.3185C48.5314 60.7166 48.4631 61.1473 48.4957 61.5764C48.5282 62.0054 48.6605 62.4209 48.8821 62.7898C49.1036 63.1587 49.4083 63.4706 49.7719 63.7008C50.1354 63.9311 50.5477 64.0731 50.9759 64.1158C51.404 64.1584 51.8362 64.1004 52.238 63.9463C52.6398 63.7923 53 63.5465 53.2899 63.2285C53.3896 63.1197 53.5107 63.0328 53.6458 62.9732C53.7808 62.9137 53.9267 62.8829 54.0742 62.8828V62.8828Z" fill="#3C591E"/>
<path d="M31.1957 81.7181C30.1849 81.7163 29.1994 81.4018 28.3745 80.8176C27.8218 81.2086 27.1938 81.4807 26.5305 81.6164C25.8672 81.7522 25.1829 81.7487 24.521 81.6062C23.8591 81.4638 23.2339 81.1854 22.6852 80.7887C22.1365 80.3921 21.6761 79.8858 21.3333 79.3019C20.9904 78.7181 20.7725 78.0694 20.6934 77.397C20.6143 76.7245 20.6757 76.043 20.8737 75.3955C21.0717 74.748 21.402 74.1487 21.8437 73.6356C22.2854 73.1224 22.8289 72.7065 23.4397 72.4144C23.438 72.365 23.4371 72.3156 23.4371 72.2662C23.4311 71.6197 23.5532 70.9785 23.7964 70.3795C24.0396 69.7806 24.3991 69.2357 24.8541 68.7765C25.3091 68.3172 25.8505 67.9527 26.4472 67.7039C27.0439 67.4551 27.6839 67.327 28.3304 67.327C28.9769 67.327 29.6169 67.4551 30.2136 67.7039C30.8103 67.9527 31.3518 68.3172 31.8067 68.7765C32.2617 69.2357 32.6212 69.7806 32.8644 70.3795C33.1076 70.9785 33.2297 71.6197 33.2237 72.2662C33.2237 72.3011 33.2237 72.3364 33.2237 72.3713C34.241 72.8342 35.0691 73.6314 35.5704 74.6303C36.0717 75.6293 36.2159 76.7697 35.9791 77.8619C35.7422 78.9542 35.1386 79.9324 34.2686 80.634C33.3986 81.3356 32.3146 81.7181 31.197 81.7181H31.1957ZM28.3745 78.3438C28.5222 78.3438 28.6682 78.3745 28.8034 78.434C28.9386 78.4936 29.0599 78.5806 29.1596 78.6895C29.4168 78.9741 29.731 79.2014 30.0818 79.3566C30.4326 79.5118 30.8121 79.5915 31.1957 79.5905C31.874 79.591 32.5289 79.3419 33.0354 78.8907C33.5419 78.4395 33.8648 77.8177 33.9424 77.1439C34.0201 76.47 33.8471 75.7911 33.4565 75.2365C33.0658 74.6819 32.4848 74.2904 31.8242 74.1366C31.5511 74.073 31.3141 73.9042 31.1648 73.6668C31.0155 73.4295 30.9658 73.1428 31.0267 72.8691C31.1188 72.4637 31.1183 72.0427 31.0252 71.6375C30.932 71.2323 30.7487 70.8533 30.4889 70.5287C30.2291 70.2042 29.8994 69.9424 29.5243 69.7629C29.1493 69.5834 28.7387 69.4908 28.3229 69.492C27.9071 69.4932 27.497 69.5881 27.123 69.7698C26.749 69.9514 26.4208 70.215 26.1628 70.541C25.9048 70.8671 25.7237 71.2471 25.6329 71.6528C25.5421 72.0585 25.544 72.4795 25.6384 72.8844C25.7001 73.1548 25.6539 73.4387 25.5095 73.6755C25.365 73.9124 25.1339 74.0835 24.8652 74.1524C24.4482 74.259 24.062 74.4616 23.7372 74.7439C23.4124 75.0263 23.1581 75.3807 22.9945 75.7787C22.831 76.1768 22.7627 76.6076 22.7952 77.0368C22.8277 77.4659 22.96 77.8815 23.1816 78.2505C23.4031 78.6194 23.7079 78.9315 24.0715 79.1617C24.435 79.392 24.8474 79.5342 25.2756 79.5768C25.7039 79.6195 26.1362 79.5614 26.538 79.4074C26.9399 79.2533 27.3002 79.0075 27.5902 78.6895C27.6898 78.5807 27.811 78.4937 27.946 78.4342C28.081 78.3747 28.2269 78.3439 28.3745 78.3438V78.3438Z" fill="#3C591E"/>
<path d="M82.5951 81.718C81.5843 81.7163 80.5988 81.4017 79.7739 80.8175C79.2212 81.2088 78.5932 81.481 77.9298 81.6169C77.2664 81.7527 76.582 81.7494 75.92 81.6069C75.2579 81.4645 74.6327 81.1861 74.0839 80.7894C73.5351 80.3927 73.0746 79.8863 72.7317 79.3024C72.3888 78.7184 72.171 78.0696 72.0919 77.397C72.0129 76.7245 72.0744 76.0428 72.2725 75.3953C72.4707 74.7478 72.8012 74.1484 73.243 73.6353C73.6849 73.1221 74.2286 72.7064 74.8395 72.4143C74.8378 72.3649 74.837 72.3155 74.837 72.2661C74.837 70.9684 75.3525 69.7238 76.2701 68.8062C77.1878 67.8886 78.4323 67.373 79.7301 67.373C81.0278 67.373 82.2724 67.8886 83.19 68.8062C84.1076 69.7238 84.6231 70.9684 84.6231 72.2661C84.6231 72.301 84.6231 72.3364 84.6231 72.3713C85.6404 72.8342 86.4686 73.6314 86.9699 74.6303C87.4711 75.6292 87.6154 76.7696 87.3785 77.8619C87.1417 78.9541 86.5381 79.9324 85.668 80.6339C84.798 81.3355 83.7141 81.7181 82.5964 81.718H82.5951ZM79.7739 78.3437C79.9216 78.3437 80.0677 78.3745 80.2029 78.434C80.338 78.4935 80.4593 78.5805 80.5591 78.6895C80.8163 78.9741 81.1305 79.2013 81.4813 79.3566C81.832 79.5118 82.2116 79.5915 82.5951 79.5904C83.2735 79.5909 83.9283 79.3418 84.4348 78.8906C84.9414 78.4395 85.2642 77.8177 85.3419 77.1438C85.4195 76.4699 85.2466 75.791 84.8559 75.2364C84.4653 74.6819 83.8843 74.2904 83.2236 74.1366C82.9507 74.0729 82.7139 73.9042 82.5646 73.6671C82.4153 73.4299 82.3655 73.1435 82.4261 72.8699C82.4705 72.6721 82.4934 72.4701 82.4942 72.2674C82.4958 71.8772 82.4148 71.4912 82.2565 71.1346C82.0982 70.778 81.8662 70.4589 81.5758 70.1984C81.2854 69.9379 80.9431 69.7418 80.5714 69.623C80.1998 69.5043 79.8072 69.4655 79.4195 69.5094C79.0318 69.5532 78.6578 69.6786 78.322 69.8774C77.9863 70.0761 77.6964 70.3437 77.4715 70.6625C77.2466 70.9813 77.0917 71.3441 77.017 71.727C76.9423 72.11 76.9496 72.5044 77.0383 72.8844C77.1 73.1549 77.0537 73.4388 76.9092 73.6756C76.7647 73.9124 76.5334 74.0835 76.2646 74.1523C75.8477 74.2589 75.4614 74.4615 75.1366 74.7439C74.8118 75.0262 74.5575 75.3806 74.394 75.7787C74.2304 76.1768 74.1622 76.6076 74.1946 77.0367C74.2271 77.4659 74.3594 77.8815 74.581 78.2504C74.8026 78.6193 75.1073 78.9314 75.4709 79.1617C75.8345 79.392 76.2468 79.5341 76.6751 79.5768C77.1033 79.6194 77.5356 79.5614 77.9375 79.4073C78.3393 79.2533 78.6996 79.0075 78.9896 78.6895C79.0893 78.5806 79.2104 78.4937 79.3454 78.4342C79.4805 78.3746 79.6264 78.3439 79.7739 78.3437V78.3437Z" fill="#3C591E"/>
</svg>
