<svg width="77" height="14" viewBox="0 0 77 14" fill="none" xmlns="http://www.w3.org/2000/svg">
<path d="M0.548 14H3.608V9.554C3.608 7.934 3.338 6.098 3.194 4.604H3.284L4.598 7.538L7.91 14H11.186V0.589999H8.126V5.036C8.126 6.638 8.396 8.564 8.558 9.986H8.468L7.154 7.016L3.824 0.589999H0.548V14ZM13.7541 14H22.4481V11.3H16.9761V8.456H21.4581V5.756H16.9761V3.272H22.2501V0.589999H13.7541V14ZM27.144 14H30.366V3.272H34.002V0.589999H23.526V3.272H27.144V14ZM35.5257 14H38.7477V8.888H43.3197V6.206H38.7477V3.272H44.0757V0.589999H35.5257V14ZM45.8489 14H54.2909V11.3H49.0709V0.589999H45.8489V14ZM56.0667 14H64.7607V11.3H59.2887V8.456H63.7707V5.756H59.2887V3.272H64.5627V0.589999H56.0667V14ZM65.5506 14H68.9706L70.1226 11.39C70.4286 10.688 70.7346 9.986 71.0406 9.158H71.1126C71.4726 9.986 71.7786 10.688 72.1026 11.39L73.3446 14H76.9266L73.2366 7.25L76.6926 0.589999H73.2906L72.3186 3.002C72.0486 3.632 71.7606 4.334 71.4546 5.198H71.3826C71.0046 4.334 70.7166 3.632 70.4106 3.002L69.3306 0.589999H65.7486L69.2226 7.106L65.5506 14Z" fill="#DF0912"/>
</svg>
