<svg width="22" height="22" viewBox="0 0 22 22" fill="none" xmlns="http://www.w3.org/2000/svg">
<g clip-path="url(#clip0_22_75)">
<path d="M17.545 11.8617C17.5817 11.5867 17.6 11.3025 17.6 11C17.6 10.7067 17.5817 10.4133 17.5358 10.1383L19.3967 8.69001C19.5617 8.56168 19.6075 8.31418 19.5067 8.13085L17.7467 5.08751C17.6367 4.88585 17.4075 4.82168 17.2058 4.88585L15.015 5.76585C14.5567 5.41751 14.0708 5.12418 13.53 4.90418L13.2 2.57585C13.1633 2.35585 12.98 2.20001 12.76 2.20001H9.23999C9.01999 2.20001 8.84582 2.35585 8.80916 2.57585L8.47916 4.90418C7.93832 5.12418 7.44332 5.42668 6.99416 5.76585L4.80332 4.88585C4.60166 4.81251 4.37249 4.88585 4.26249 5.08751L2.51166 8.13085C2.40166 8.32335 2.43832 8.56168 2.62166 8.69001L4.48249 10.1383C4.43666 10.4133 4.39999 10.7158 4.39999 11C4.39999 11.2842 4.41832 11.5867 4.46416 11.8617L2.60332 13.31C2.43832 13.4383 2.39249 13.6858 2.49332 13.8692L4.25332 16.9125C4.36332 17.1142 4.59249 17.1783 4.79416 17.1142L6.98499 16.2342C7.44332 16.5825 7.92916 16.8758 8.46999 17.0958L8.79999 19.4242C8.84582 19.6442 9.01999 19.8 9.23999 19.8H12.76C12.98 19.8 13.1633 19.6442 13.1908 19.4242L13.5208 17.0958C14.0617 16.8758 14.5567 16.5825 15.0058 16.2342L17.1967 17.1142C17.3983 17.1875 17.6275 17.1142 17.7375 16.9125L19.4975 13.8692C19.6075 13.6675 19.5617 13.4383 19.3875 13.31L17.545 11.8617ZM11 14.3C9.18499 14.3 7.69999 12.815 7.69999 11C7.69999 9.18501 9.18499 7.70001 11 7.70001C12.815 7.70001 14.3 9.18501 14.3 11C14.3 12.815 12.815 14.3 11 14.3Z" fill="white"/>
</g>
<defs>
<clipPath id="clip0_22_75">
<rect width="22" height="22" fill="white"/>
</clipPath>
</defs>
</svg>
